<?xml version="1.0" encoding="UTF-8"?>
<svg width="1480px" height="1548px" viewBox="0 0 1480 1548" version="1.1" xmlns="http://www.w3.org/2000/svg" xmlns:xlink="http://www.w3.org/1999/xlink">
    <title>FAQ's</title>
    <defs>
        <linearGradient x1="50%" y1="54.7256885%" x2="50%" y2="97.2286523%" id="linearGradient-1">
            <stop stop-color="#DFE1E8" offset="0%"></stop>
            <stop stop-color="#F2F3F8" offset="100%"></stop>
        </linearGradient>
        <rect id="path-2" x="0" y="0" width="1480" height="1548"></rect>
    </defs>
    <g id="FAQ's" stroke="none" stroke-width="1" fill="none" fill-rule="evenodd">
        <g id="why-housing-edge">
            <mask id="mask-3" fill="white">
                <use xlink:href="#path-2"></use>
            </mask>
            <use id="Mask" fill="url(#linearGradient-1)" xlink:href="#path-2"></use>
            <g id="Group-3" mask="url(#mask-3)" opacity="0.100000001">
                <g transform="translate(1438.000000, 1520.000000) scale(1, -1) rotate(-180.000000) translate(-1438.000000, -1520.000000) translate(1234.000000, 1437.000000)" id="Group-2">
                    <g transform="translate(204.000000, 39.223053) scale(1, -1) translate(-204.000000, -39.223053) translate(0.000000, 0.723053)">
                        <g id="Group-13" transform="translate(97.000000, 38.918175) scale(1, -1) translate(-97.000000, -38.918175) translate(0.000000, 0.918175)">
                            <g id="Group" transform="translate(104.833333, 0.000000)">
                                <ellipse id="Oval" fill="#F2F3F8" cx="57.3584582" cy="3.43714894" rx="4.0017529" ry="3.43714894"></ellipse>
                                <ellipse id="Oval" fill="#F2F3F8" cx="84.0368108" cy="3.43714894" rx="4.0017529" ry="3.43714894"></ellipse>
                                <ellipse id="Oval" fill="#F2F3F8" cx="57.3584582" cy="26.3514752" rx="4.0017529" ry="3.43714894"></ellipse>
                                <ellipse id="Oval" fill="#F2F3F8" cx="84.0368108" cy="26.3514752" rx="4.0017529" ry="3.43714894"></ellipse>
                                <ellipse id="Oval" fill="#2E204E" cx="57.3584582" cy="49.2658014" rx="4.0017529" ry="3.43714894"></ellipse>
                                <ellipse id="Oval" fill="#2E204E" cx="84.0368108" cy="49.2658014" rx="4.0017529" ry="3.43714894"></ellipse>
                                <ellipse id="Oval" fill="#2E204E" cx="57.3584582" cy="72.1801277" rx="4.0017529" ry="3.43714894"></ellipse>
                                <ellipse id="Oval" fill="#2E204E" cx="84.0368108" cy="72.1801277" rx="4.0017529" ry="3.43714894"></ellipse>
                            </g>
                        </g>
                        <g id="Group-13" transform="translate(310.777778, 38.918175) scale(1, -1) translate(-310.777778, -38.918175) translate(213.777778, 0.918175)">
                            <g id="Group" transform="translate(104.833333, 0.000000)">
                                <ellipse id="Oval" fill="#F2F3F8" cx="4.0017529" cy="3.43714894" rx="4.0017529" ry="3.43714894"></ellipse>
                                <ellipse id="Oval" fill="#F2F3F8" cx="30.6801055" cy="3.43714894" rx="4.0017529" ry="3.43714894"></ellipse>
                                <ellipse id="Oval" fill="#F2F3F8" cx="57.3584582" cy="3.43714894" rx="4.0017529" ry="3.43714894"></ellipse>
                                <ellipse id="Oval" fill="#F2F3F8" cx="84.0368108" cy="3.43714894" rx="4.0017529" ry="3.43714894"></ellipse>
                                <ellipse id="Oval" fill="#F2F3F8" cx="4.0017529" cy="26.3514752" rx="4.0017529" ry="3.43714894"></ellipse>
                                <ellipse id="Oval" fill="#F2F3F8" cx="30.6801055" cy="26.3514752" rx="4.0017529" ry="3.43714894"></ellipse>
                                <ellipse id="Oval" fill="#F2F3F8" cx="57.3584582" cy="26.3514752" rx="4.0017529" ry="3.43714894"></ellipse>
                                <ellipse id="Oval" fill="#F2F3F8" cx="84.0368108" cy="26.3514752" rx="4.0017529" ry="3.43714894"></ellipse>
                                <ellipse id="Oval" fill="#2E204E" cx="4.0017529" cy="49.2658014" rx="4.0017529" ry="3.43714894"></ellipse>
                                <ellipse id="Oval" fill="#2E204E" cx="30.6801055" cy="49.2658014" rx="4.0017529" ry="3.43714894"></ellipse>
                                <ellipse id="Oval" fill="#2E204E" cx="57.3584582" cy="49.2658014" rx="4.0017529" ry="3.43714894"></ellipse>
                                <ellipse id="Oval" fill="#2E204E" cx="84.0368108" cy="49.2658014" rx="4.0017529" ry="3.43714894"></ellipse>
                                <ellipse id="Oval" fill="#2E204E" cx="4.0017529" cy="72.1801277" rx="4.0017529" ry="3.43714894"></ellipse>
                                <ellipse id="Oval" fill="#2E204E" cx="30.6801055" cy="72.1801277" rx="4.0017529" ry="3.43714894"></ellipse>
                                <ellipse id="Oval" fill="#2E204E" cx="57.3584582" cy="72.1801277" rx="4.0017529" ry="3.43714894"></ellipse>
                                <ellipse id="Oval" fill="#2E204E" cx="84.0368108" cy="72.1801277" rx="4.0017529" ry="3.43714894"></ellipse>
                            </g>
                            <g id="Group">
                                <ellipse id="Oval" fill="#F2F3F8" cx="4.0017529" cy="3.43714894" rx="4.0017529" ry="3.43714894"></ellipse>
                                <ellipse id="Oval" fill="#F2F3F8" cx="30.6801055" cy="3.43714894" rx="4.0017529" ry="3.43714894"></ellipse>
                                <ellipse id="Oval" fill="#F2F3F8" cx="57.3584582" cy="3.43714894" rx="4.0017529" ry="3.43714894"></ellipse>
                                <ellipse id="Oval" fill="#F2F3F8" cx="84.0368108" cy="3.43714894" rx="4.0017529" ry="3.43714894"></ellipse>
                                <ellipse id="Oval" fill="#F2F3F8" cx="4.0017529" cy="26.3514752" rx="4.0017529" ry="3.43714894"></ellipse>
                                <ellipse id="Oval" fill="#F2F3F8" cx="30.6801055" cy="26.3514752" rx="4.0017529" ry="3.43714894"></ellipse>
                                <ellipse id="Oval" fill="#F2F3F8" cx="57.3584582" cy="26.3514752" rx="4.0017529" ry="3.43714894"></ellipse>
                                <ellipse id="Oval" fill="#F2F3F8" cx="84.0368108" cy="26.3514752" rx="4.0017529" ry="3.43714894"></ellipse>
                                <ellipse id="Oval" fill="#2E204E" cx="4.0017529" cy="49.2658014" rx="4.0017529" ry="3.43714894"></ellipse>
                                <ellipse id="Oval" fill="#2E204E" cx="30.6801055" cy="49.2658014" rx="4.0017529" ry="3.43714894"></ellipse>
                                <ellipse id="Oval" fill="#2E204E" cx="57.3584582" cy="49.2658014" rx="4.0017529" ry="3.43714894"></ellipse>
                                <ellipse id="Oval" fill="#2E204E" cx="84.0368108" cy="49.2658014" rx="4.0017529" ry="3.43714894"></ellipse>
                                <ellipse id="Oval" fill="#2E204E" cx="4.0017529" cy="72.1801277" rx="4.0017529" ry="3.43714894"></ellipse>
                                <ellipse id="Oval" fill="#2E204E" cx="30.6801055" cy="72.1801277" rx="4.0017529" ry="3.43714894"></ellipse>
                                <ellipse id="Oval" fill="#2E204E" cx="57.3584582" cy="72.1801277" rx="4.0017529" ry="3.43714894"></ellipse>
                                <ellipse id="Oval" fill="#2E204E" cx="84.0368108" cy="72.1801277" rx="4.0017529" ry="3.43714894"></ellipse>
                            </g>
                        </g>
                    </g>
                    <g transform="translate(204.000000, 83.361526) scale(1, -1) translate(-204.000000, -83.361526) translate(0.000000, 44.861526)">
                        <g id="Group-13" transform="translate(97.000000, 38.918175) scale(1, -1) translate(-97.000000, -38.918175) translate(0.000000, 0.918175)">
                            <g id="Group" transform="translate(104.833333, 0.000000)">
                                <ellipse id="Oval" fill="#F2F3F8" cx="57.3584582" cy="3.43714894" rx="4.0017529" ry="3.43714894"></ellipse>
                                <ellipse id="Oval" fill="#F2F3F8" cx="84.0368108" cy="3.43714894" rx="4.0017529" ry="3.43714894"></ellipse>
                                <ellipse id="Oval" fill="#F2F3F8" cx="57.3584582" cy="26.3514752" rx="4.0017529" ry="3.43714894"></ellipse>
                                <ellipse id="Oval" fill="#F2F3F8" cx="84.0368108" cy="26.3514752" rx="4.0017529" ry="3.43714894"></ellipse>
                                <ellipse id="Oval" fill="#2E204E" cx="57.3584582" cy="49.2658014" rx="4.0017529" ry="3.43714894"></ellipse>
                                <ellipse id="Oval" fill="#2E204E" cx="84.0368108" cy="49.2658014" rx="4.0017529" ry="3.43714894"></ellipse>
                            </g>
                        </g>
                        <g id="Group-13" transform="translate(310.777778, 38.918175) scale(1, -1) translate(-310.777778, -38.918175) translate(213.777778, 0.918175)">
                            <g id="Group" transform="translate(104.833333, 0.000000)">
                                <ellipse id="Oval" fill="#F2F3F8" cx="4.0017529" cy="3.43714894" rx="4.0017529" ry="3.43714894"></ellipse>
                                <ellipse id="Oval" fill="#F2F3F8" cx="30.6801055" cy="3.43714894" rx="4.0017529" ry="3.43714894"></ellipse>
                                <ellipse id="Oval" fill="#F2F3F8" cx="57.3584582" cy="3.43714894" rx="4.0017529" ry="3.43714894"></ellipse>
                                <ellipse id="Oval" fill="#F2F3F8" cx="84.0368108" cy="3.43714894" rx="4.0017529" ry="3.43714894"></ellipse>
                                <ellipse id="Oval" fill="#F2F3F8" cx="4.0017529" cy="26.3514752" rx="4.0017529" ry="3.43714894"></ellipse>
                                <ellipse id="Oval" fill="#F2F3F8" cx="30.6801055" cy="26.3514752" rx="4.0017529" ry="3.43714894"></ellipse>
                                <ellipse id="Oval" fill="#F2F3F8" cx="57.3584582" cy="26.3514752" rx="4.0017529" ry="3.43714894"></ellipse>
                                <ellipse id="Oval" fill="#F2F3F8" cx="84.0368108" cy="26.3514752" rx="4.0017529" ry="3.43714894"></ellipse>
                                <ellipse id="Oval" fill="#2E204E" cx="4.0017529" cy="49.2658014" rx="4.0017529" ry="3.43714894"></ellipse>
                                <ellipse id="Oval" fill="#2E204E" cx="30.6801055" cy="49.2658014" rx="4.0017529" ry="3.43714894"></ellipse>
                                <ellipse id="Oval" fill="#2E204E" cx="57.3584582" cy="49.2658014" rx="4.0017529" ry="3.43714894"></ellipse>
                                <ellipse id="Oval" fill="#2E204E" cx="84.0368108" cy="49.2658014" rx="4.0017529" ry="3.43714894"></ellipse>
                            </g>
                            <g id="Group">
                                <ellipse id="Oval" fill="#F2F3F8" cx="4.0017529" cy="3.43714894" rx="4.0017529" ry="3.43714894"></ellipse>
                                <ellipse id="Oval" fill="#F2F3F8" cx="30.6801055" cy="3.43714894" rx="4.0017529" ry="3.43714894"></ellipse>
                                <ellipse id="Oval" fill="#F2F3F8" cx="57.3584582" cy="3.43714894" rx="4.0017529" ry="3.43714894"></ellipse>
                                <ellipse id="Oval" fill="#F2F3F8" cx="84.0368108" cy="3.43714894" rx="4.0017529" ry="3.43714894"></ellipse>
                                <ellipse id="Oval" fill="#F2F3F8" cx="4.0017529" cy="26.3514752" rx="4.0017529" ry="3.43714894"></ellipse>
                                <ellipse id="Oval" fill="#F2F3F8" cx="30.6801055" cy="26.3514752" rx="4.0017529" ry="3.43714894"></ellipse>
                                <ellipse id="Oval" fill="#F2F3F8" cx="57.3584582" cy="26.3514752" rx="4.0017529" ry="3.43714894"></ellipse>
                                <ellipse id="Oval" fill="#F2F3F8" cx="84.0368108" cy="26.3514752" rx="4.0017529" ry="3.43714894"></ellipse>
                                <ellipse id="Oval" fill="#2E204E" cx="4.0017529" cy="49.2658014" rx="4.0017529" ry="3.43714894"></ellipse>
                                <ellipse id="Oval" fill="#2E204E" cx="30.6801055" cy="49.2658014" rx="4.0017529" ry="3.43714894"></ellipse>
                                <ellipse id="Oval" fill="#2E204E" cx="57.3584582" cy="49.2658014" rx="4.0017529" ry="3.43714894"></ellipse>
                                <ellipse id="Oval" fill="#2E204E" cx="84.0368108" cy="49.2658014" rx="4.0017529" ry="3.43714894"></ellipse>
                            </g>
                        </g>
                    </g>
                    <g transform="translate(204.000000, 127.500000) scale(1, -1) translate(-204.000000, -127.500000) translate(0.000000, 89.000000)">
                        <g id="Group-13" transform="translate(97.000000, 38.918175) scale(1, -1) translate(-97.000000, -38.918175) translate(0.000000, 0.918175)" fill="#F2F3F8">
                            <g id="Group" transform="translate(104.833333, 0.000000)">
                                <ellipse id="Oval" cx="57.3584582" cy="3.43714894" rx="4.0017529" ry="3.43714894"></ellipse>
                                <ellipse id="Oval" cx="84.0368108" cy="3.43714894" rx="4.0017529" ry="3.43714894"></ellipse>
                            </g>
                        </g>
                        <g id="Group-13" transform="translate(310.777778, 38.918175) scale(1, -1) translate(-310.777778, -38.918175) translate(213.777778, 0.918175)" fill="#F2F3F8">
                            <g id="Group" transform="translate(104.833333, 0.000000)">
                                <ellipse id="Oval" cx="4.0017529" cy="3.43714894" rx="4.0017529" ry="3.43714894"></ellipse>
                                <ellipse id="Oval" cx="30.6801055" cy="3.43714894" rx="4.0017529" ry="3.43714894"></ellipse>
                                <ellipse id="Oval" cx="57.3584582" cy="3.43714894" rx="4.0017529" ry="3.43714894"></ellipse>
                                <ellipse id="Oval" cx="84.0368108" cy="3.43714894" rx="4.0017529" ry="3.43714894"></ellipse>
                            </g>
                            <g id="Group">
                                <ellipse id="Oval" cx="4.0017529" cy="3.43714894" rx="4.0017529" ry="3.43714894"></ellipse>
                                <ellipse id="Oval" cx="30.6801055" cy="3.43714894" rx="4.0017529" ry="3.43714894"></ellipse>
                                <ellipse id="Oval" cx="57.3584582" cy="3.43714894" rx="4.0017529" ry="3.43714894"></ellipse>
                                <ellipse id="Oval" cx="84.0368108" cy="3.43714894" rx="4.0017529" ry="3.43714894"></ellipse>
                            </g>
                        </g>
                    </g>
                </g>
            </g>
            <g mask="url(#mask-3)" id="Group-4">
                <g transform="translate(-777.000000, 70.000000)">
                    <g id="Group-12" opacity="0.800000012" transform="translate(776.500000, 798.000000) scale(-1, 1) rotate(-50.000000) translate(-776.500000, -798.000000) translate(300.000000, 185.000000)" stroke="#6592D7">
                        <path d="M731.889076,209.229669 L731.830112,1012.51387 C731.827679,1045.65095 704.962792,1072.5119 671.825707,1072.50947 C660.700118,1072.50865 649.793857,1069.41449 640.325384,1063.57268 L198.374492,790.900042 C170.173056,773.500462 161.416421,736.533534 178.816002,708.332097 C180.305176,705.918428 181.96361,703.613381 183.778831,701.434296 L625.788689,170.822736 C646.99782,145.362194 684.831064,141.915746 710.291606,163.124877 C723.977441,174.525447 731.890384,191.417451 731.889076,209.229669 Z" id="Rectangle" transform="translate(435.704185, 581.731829) rotate(-10.000000) translate(-435.704185, -581.731829) "></path>
                        <path d="M772.661103,242.759399 L772.541343,1046.00786 C772.536402,1079.14494 745.669482,1106.00385 712.532398,1105.99891 C701.409906,1105.99726 690.506792,1102.904 681.04051,1097.06453 L239.088109,824.43749 C210.885346,807.04006 202.125893,770.0738 219.523323,741.871037 C221.013747,739.454928 222.673764,737.147642 224.490865,734.966567 L666.563027,204.34515 C687.773691,178.885885 725.607142,175.441713 751.066407,196.652376 C764.751807,208.053979 772.663759,224.946855 772.661103,242.759399 Z" id="Rectangle" transform="translate(476.447840, 615.232085) rotate(-22.000000) translate(-476.447840, -615.232085) "></path>
                        <path d="M775.931783,331.121901 L775.920672,1073.27386 C775.920176,1106.41094 749.056859,1133.27345 715.919774,1133.27296 C702.088332,1133.27275 688.681714,1128.49386 677.968783,1119.74504 L369.459952,867.798206 C346.000463,848.639779 340.498577,815.000937 356.631906,789.366807 L665.151848,299.161682 C682.802493,271.116698 719.84612,262.690422 747.891103,280.341068 C765.343176,291.324862 775.932092,310.501073 775.931783,331.121901 Z" id="Rectangle" fill-opacity="0.15" fill="#88AEEA" transform="translate(552.158738, 661.438087) rotate(-2.000000) translate(-552.158738, -661.438087) "></path>
                    </g>
                    <g id="Group-3" transform="translate(862.000000, 39.000000) scale(1, -1) rotate(-180.000000) translate(-862.000000, -39.000000) translate(658.000000, 0.000000)" opacity="0.100000001">
                        <g id="Group-2" transform="translate(204.000000, 39.223053) scale(1, -1) translate(-204.000000, -39.223053) translate(0.000000, 0.723053)">
                            <g id="Group-13" transform="translate(97.000000, 38.918175) scale(1, -1) translate(-97.000000, -38.918175) translate(0.000000, 0.918175)">
                                <g id="Group" transform="translate(104.833333, 0.000000)">
                                    <ellipse id="Oval" fill="#F2F3F8" cx="4.0017529" cy="3.43714894" rx="4.0017529" ry="3.43714894"></ellipse>
                                    <ellipse id="Oval" fill="#F2F3F8" cx="30.6801055" cy="3.43714894" rx="4.0017529" ry="3.43714894"></ellipse>
                                    <ellipse id="Oval" fill="#F2F3F8" cx="57.3584582" cy="3.43714894" rx="4.0017529" ry="3.43714894"></ellipse>
                                    <ellipse id="Oval" fill="#F2F3F8" cx="84.0368108" cy="3.43714894" rx="4.0017529" ry="3.43714894"></ellipse>
                                    <ellipse id="Oval" fill="#F2F3F8" cx="4.0017529" cy="26.3514752" rx="4.0017529" ry="3.43714894"></ellipse>
                                    <ellipse id="Oval" fill="#F2F3F8" cx="30.6801055" cy="26.3514752" rx="4.0017529" ry="3.43714894"></ellipse>
                                    <ellipse id="Oval" fill="#F2F3F8" cx="57.3584582" cy="26.3514752" rx="4.0017529" ry="3.43714894"></ellipse>
                                    <ellipse id="Oval" fill="#F2F3F8" cx="84.0368108" cy="26.3514752" rx="4.0017529" ry="3.43714894"></ellipse>
                                    <ellipse id="Oval" fill="#2E204E" cx="4.0017529" cy="49.2658014" rx="4.0017529" ry="3.43714894"></ellipse>
                                    <ellipse id="Oval" fill="#2E204E" cx="30.6801055" cy="49.2658014" rx="4.0017529" ry="3.43714894"></ellipse>
                                    <ellipse id="Oval" fill="#2E204E" cx="57.3584582" cy="49.2658014" rx="4.0017529" ry="3.43714894"></ellipse>
                                    <ellipse id="Oval" fill="#2E204E" cx="84.0368108" cy="49.2658014" rx="4.0017529" ry="3.43714894"></ellipse>
                                    <ellipse id="Oval" fill="#2E204E" cx="4.0017529" cy="72.1801277" rx="4.0017529" ry="3.43714894"></ellipse>
                                    <ellipse id="Oval" fill="#2E204E" cx="30.6801055" cy="72.1801277" rx="4.0017529" ry="3.43714894"></ellipse>
                                    <ellipse id="Oval" fill="#2E204E" cx="57.3584582" cy="72.1801277" rx="4.0017529" ry="3.43714894"></ellipse>
                                    <ellipse id="Oval" fill="#2E204E" cx="84.0368108" cy="72.1801277" rx="4.0017529" ry="3.43714894"></ellipse>
                                </g>
                                <g id="Group">
                                    <ellipse id="Oval" fill="#F2F3F8" cx="4.0017529" cy="3.43714894" rx="4.0017529" ry="3.43714894"></ellipse>
                                    <ellipse id="Oval" fill="#F2F3F8" cx="30.6801055" cy="3.43714894" rx="4.0017529" ry="3.43714894"></ellipse>
                                    <ellipse id="Oval" fill="#F2F3F8" cx="57.3584582" cy="3.43714894" rx="4.0017529" ry="3.43714894"></ellipse>
                                    <ellipse id="Oval" fill="#F2F3F8" cx="84.0368108" cy="3.43714894" rx="4.0017529" ry="3.43714894"></ellipse>
                                    <ellipse id="Oval" fill="#F2F3F8" cx="4.0017529" cy="26.3514752" rx="4.0017529" ry="3.43714894"></ellipse>
                                    <ellipse id="Oval" fill="#F2F3F8" cx="30.6801055" cy="26.3514752" rx="4.0017529" ry="3.43714894"></ellipse>
                                    <ellipse id="Oval" fill="#F2F3F8" cx="57.3584582" cy="26.3514752" rx="4.0017529" ry="3.43714894"></ellipse>
                                    <ellipse id="Oval" fill="#F2F3F8" cx="84.0368108" cy="26.3514752" rx="4.0017529" ry="3.43714894"></ellipse>
                                    <ellipse id="Oval" fill="#2E204E" cx="4.0017529" cy="49.2658014" rx="4.0017529" ry="3.43714894"></ellipse>
                                    <ellipse id="Oval" fill="#2E204E" cx="30.6801055" cy="49.2658014" rx="4.0017529" ry="3.43714894"></ellipse>
                                    <ellipse id="Oval" fill="#2E204E" cx="57.3584582" cy="49.2658014" rx="4.0017529" ry="3.43714894"></ellipse>
                                    <ellipse id="Oval" fill="#2E204E" cx="84.0368108" cy="49.2658014" rx="4.0017529" ry="3.43714894"></ellipse>
                                    <ellipse id="Oval" fill="#2E204E" cx="4.0017529" cy="72.1801277" rx="4.0017529" ry="3.43714894"></ellipse>
                                    <ellipse id="Oval" fill="#2E204E" cx="30.6801055" cy="72.1801277" rx="4.0017529" ry="3.43714894"></ellipse>
                                    <ellipse id="Oval" fill="#2E204E" cx="57.3584582" cy="72.1801277" rx="4.0017529" ry="3.43714894"></ellipse>
                                    <ellipse id="Oval" fill="#2E204E" cx="84.0368108" cy="72.1801277" rx="4.0017529" ry="3.43714894"></ellipse>
                                </g>
                            </g>
                            <g id="Group" transform="translate(310.777778, 38.918175) scale(1, -1) translate(-310.777778, -38.918175) translate(213.777778, 0.918175)">
                                <ellipse id="Oval" fill="#F2F3F8" cx="4.0017529" cy="3.43714894" rx="4.0017529" ry="3.43714894"></ellipse>
                                <ellipse id="Oval" fill="#F2F3F8" cx="30.6801055" cy="3.43714894" rx="4.0017529" ry="3.43714894"></ellipse>
                                <ellipse id="Oval" fill="#F2F3F8" cx="57.3584582" cy="3.43714894" rx="4.0017529" ry="3.43714894"></ellipse>
                                <ellipse id="Oval" fill="#F2F3F8" cx="4.0017529" cy="26.3514752" rx="4.0017529" ry="3.43714894"></ellipse>
                                <ellipse id="Oval" fill="#F2F3F8" cx="30.6801055" cy="26.3514752" rx="4.0017529" ry="3.43714894"></ellipse>
                                <ellipse id="Oval" fill="#F2F3F8" cx="57.3584582" cy="26.3514752" rx="4.0017529" ry="3.43714894"></ellipse>
                                <ellipse id="Oval" fill="#2E204E" cx="4.0017529" cy="49.2658014" rx="4.0017529" ry="3.43714894"></ellipse>
                                <ellipse id="Oval" fill="#2E204E" cx="30.6801055" cy="49.2658014" rx="4.0017529" ry="3.43714894"></ellipse>
                                <ellipse id="Oval" fill="#2E204E" cx="57.3584582" cy="49.2658014" rx="4.0017529" ry="3.43714894"></ellipse>
                                <ellipse id="Oval" fill="#2E204E" cx="4.0017529" cy="72.1801277" rx="4.0017529" ry="3.43714894"></ellipse>
                                <ellipse id="Oval" fill="#2E204E" cx="30.6801055" cy="72.1801277" rx="4.0017529" ry="3.43714894"></ellipse>
                                <ellipse id="Oval" fill="#2E204E" cx="57.3584582" cy="72.1801277" rx="4.0017529" ry="3.43714894"></ellipse>
                            </g>
                        </g>
                    </g>
                    <g id="Group-12" opacity="0.800000012" transform="translate(1786.000000, 576.000000)" stroke="#6592D7">
                        <path d="M786,180.605471 L786,869.551359 C786,902.688444 759.137085,929.551359 726,929.551359 C714.884329,929.551359 703.987168,926.463514 694.523869,920.632209 L314.959087,686.743561 C286.747913,669.359774 277.970581,632.397755 295.354368,604.186581 C296.85479,601.751631 298.527397,599.427081 300.359395,597.230713 L679.924177,142.173472 C701.149585,116.726498 738.985025,113.304241 764.431999,134.529649 C778.099052,145.929383 786,162.808216 786,180.605471 Z" id="Rectangle" fill-opacity="0.15" fill="#88AEEA"></path>
                        <path d="M654.26846,204.46243 L654.332613,892.913226 C654.335701,926.05031 627.475289,952.915729 594.338204,952.918816 C583.216032,952.919853 572.312469,949.829413 562.844953,943.99256 L183.687283,710.236679 C155.480033,692.846525 146.711045,655.882525 164.101199,627.675276 C165.597494,625.24825 167.264884,622.930966 169.090694,620.741041 L548.184211,166.046127 C569.404037,140.594499 607.238726,137.163946 632.690354,158.383772 C646.36194,169.782205 654.266801,186.662528 654.26846,204.46243 Z" id="Rectangle" transform="translate(389.552762, 519.613239) rotate(-10.000000) translate(-389.552762, -519.613239) "></path>
                        <path d="M690.659084,234.378429 L690.789382,922.867704 C690.795653,956.004789 663.937823,982.872787 630.800738,982.879058 C619.674636,982.881164 608.76708,979.789588 599.296782,973.949756 L220.140978,740.144405 C191.935411,722.751522 183.169998,685.786674 200.562881,657.581107 C202.057591,655.157176 203.722973,652.842734 205.546396,650.655332 L584.571903,195.971409 C605.789786,170.518161 643.624213,167.084719 669.077461,188.302602 C682.749599,199.699725 690.655716,216.578942 690.659084,234.378429 Z" id="Rectangle" transform="translate(426.020068, 549.563203) rotate(-22.000000) translate(-426.020068, -549.563203) "></path>
                    </g>
                </g>
            </g>
        </g>
    </g>
</svg>